<?xml version="1.0" standalone="no"?><!DOCTYPE svg PUBLIC "-//W3C//DTD SVG 1.1//EN" "http://www.w3.org/Graphics/SVG/1.1/DTD/svg11.dtd"><svg t="1588951556777" class="icon" viewBox="0 0 1024 1024" version="1.1" xmlns="http://www.w3.org/2000/svg" p-id="4603" width="32" height="32" xmlns:xlink="http://www.w3.org/1999/xlink"><defs><style type="text/css"></style></defs><path d="M749.511111 750.80404l-1.292929 0.258586c-12.412121 2.715152-24.694949-5.430303-27.022222-17.842424l-81.971718-433.389899c-2.327273-12.153535 5.688889-23.919192 17.842425-26.375758 12.282828-2.456566 24.177778 5.559596 26.50505 17.842425l83.39394 433.131313c2.19798 12.153535-5.559596 23.789899-17.454546 26.375757zM290.779798 750.80404l1.292929 0.258586c12.412121 2.715152 24.694949-5.430303 27.022222-17.842424l81.971718-433.389899c2.327273-12.153535-5.688889-23.919192-17.842425-26.375758-12.282828-2.456566-24.177778 5.559596-26.50505 17.842425l-83.393939 433.131313c-2.327273 12.153535 5.430303 23.789899 17.454545 26.375757z" p-id="4604" fill="#212057"></path><path d="M531.393939 415.935354h-10.989899c-9.309091 0-16.808081-7.49899-16.80808-16.808081v-89.212121c0-9.309091 7.49899-16.808081 16.80808-16.808081h10.989899c9.309091 0 16.808081 7.49899 16.808081 16.808081v89.212121c0 9.179798-7.49899 16.808081-16.808081 16.808081zM531.393939 749.252525h-10.989899c-9.309091 0-16.808081-7.49899-16.80808-16.808081v-89.212121c0-9.309091 7.49899-16.808081 16.80808-16.808081h10.989899c9.309091 0 16.808081 7.49899 16.808081 16.808081v89.212121c0 9.309091-7.49899 16.808081-16.808081 16.808081zM531.393939 588.282828h-10.989899c-9.309091 0-16.808081-7.49899-16.80808-16.808081v-104.985858c0-9.309091 7.49899-16.808081 16.80808-16.808081h10.989899c9.309091 0 16.808081 7.49899 16.808081 16.808081V571.474747c0 9.309091-7.49899 16.808081-16.808081 16.808081z" p-id="4605" fill="#212057"></path></svg>