<?xml version="1.0" standalone="no"?><!DOCTYPE svg PUBLIC "-//W3C//DTD SVG 1.1//EN" "http://www.w3.org/Graphics/SVG/1.1/DTD/svg11.dtd"><svg t="1587561811366" class="icon" viewBox="0 0 1185 1024" version="1.1" xmlns="http://www.w3.org/2000/svg" p-id="10409" xmlns:xlink="http://www.w3.org/1999/xlink" width="74.0625" height="64"><defs><style type="text/css"></style></defs><path d="M862.315789 700.631579m-323.368421 0a323.368421 323.368421 0 1 0 646.736843 0 323.368421 323.368421 0 1 0-646.736843 0Z" fill="#e6e6e6" opacity=".293" p-id="10410"></path><path d="M212.021895 773.281684h222.746947c17.839158 0 32.336842-16.276211 32.336842-36.325052 0-20.048842-14.497684-36.325053-32.336842-36.325053H212.021895c-17.839158 0-32.336842 16.276211-32.336842 36.325053 0 20.048842 14.497684 36.325053 32.336842 36.325052zM538.839579 431.157895H215.093895c-35.732211 0-35.408842 15.791158-35.408842 35.84 0 20.048842-0.323368 36.432842 35.408842 36.432842h323.745684c35.732211 0 35.732211-16.491789 35.73221-36.432842C574.517895 446.949053 574.517895 431.157895 538.839579 431.157895z m-81.650526 509.628631l0.754526-0.808421H125.898105c-21.342316 0-35.947789-14.874947-35.947789-36.109473V108.759579c0-21.342316 14.659368-36.109474 35.947789-36.109474h719.440842c21.342316 0 35.893895 14.874947 35.893895 36.109474v365.729684l0.215579-0.161684a36.109474 36.109474 0 0 0 35.732211 31.959579 36.001684 36.001684 0 0 0 35.73221-39.504842l0.215579 0.107789V77.500632c0-42.576842-34.546526-77.069474-77.123368-77.069474h-770.694737c-42.576842 0-87.309474 29.642105-87.309474 72.218947v867.328c0 42.576842 29.372632 72.218947 71.949474 72.218948h359.747368a36.109474 36.109474 0 1 0 7.437474-71.464421z" fill="#e6e6e6" p-id="10411"></path><path d="M161.684211 215.578947m23.713684 0l545.414737 0q23.713684 0 23.713684 23.713685l0 24.252631q0 23.713684-23.713684 23.713684l-545.414737 0q-23.713684 0-23.713684-23.713684l0-24.252631q0-23.713684 23.713684-23.713685Z" fill="#e6e6e6" p-id="10412"></path><path d="M781.473684 916.210526a134.736842 134.736842 0 1 1 0-269.473684 134.736842 134.736842 0 0 1 0 269.473684z m0-53.894737a80.842105 80.842105 0 1 0 0-161.68421 80.842105 80.842105 0 0 0 0 161.68421z" fill="#e6e6e6" p-id="10413"></path><path d="M592.842105 1024a188.631579 188.631579 0 0 1 373.490527 0h-54.703158a134.736842 134.736842 0 0 0-264.084211 0H592.842105z" fill="#e6e6e6" p-id="10414"></path></svg>