<?xml version="1.0" standalone="no"?><!DOCTYPE svg PUBLIC "-//W3C//DTD SVG 1.1//EN" "http://www.w3.org/Graphics/SVG/1.1/DTD/svg11.dtd"><svg t="1587692221093" class="icon" viewBox="0 0 1024 1024" version="1.1" xmlns="http://www.w3.org/2000/svg" p-id="2085" xmlns:xlink="http://www.w3.org/1999/xlink" width="32" height="32"><defs><style type="text/css"></style></defs><path d="M648.759 176.928c-0.777 55.108-45.906 99.545-101.473 99.545-55.564 0-100.697-44.437-101.475-99.545H272.194v231.771c-0.797-0.019-1.594-0.03-2.393-0.03-56.051 0-101.492 45.215-101.492 100.995 0 55.773 45.441 100.986 101.492 100.986 0.799 0 1.596-0.012 2.393-0.029v235.771h173.611c0.465-55.379 45.719-100.131 101.48-100.131s101.016 44.752 101.48 100.131h194.611V176.928H648.759z" fill="#D1D9E0" p-id="2086"></path><path d="M883.378 886.392H609.101l-0.332-39.664c-0.28-33.342-27.861-60.467-61.482-60.467s-61.202 27.125-61.481 60.467l-0.333 39.664H232.194V645.595c-59.827-16.45-103.885-71.159-103.885-135.932 0-64.776 44.058-119.489 103.885-135.94V136.928h253.057l0.557 39.436c0.468 33.145 28.047 60.109 61.479 60.109 33.431 0 61.009-26.965 61.477-60.109l0.557-39.436H883.38v749.464z m-200.613-80h120.613V216.928H682.582c-6.788 22.103-19.021 42.314-35.985 58.976-26.638 26.161-61.906 40.569-99.311 40.569-37.403 0-72.672-14.407-99.31-40.568-16.967-16.663-29.199-36.874-35.988-58.977h-99.794V449.64l-40.931-0.952a64.71 64.71 0 0 0-1.462-0.02c-33.907 0-61.492 27.362-61.492 60.995 0 33.628 27.585 60.986 61.492 60.986 0.504 0 1.006-0.009 1.508-0.02l40.885-0.905v236.667h99.613c6.713-22.204 18.914-42.526 35.897-59.296 26.67-26.333 62.035-40.835 99.581-40.835s72.911 14.502 99.581 40.835c16.985 16.771 29.186 37.093 35.899 59.297z" fill="#FFFFFF" p-id="2087"></path><path d="M843.353 859.371H648.741c-6.588 0-11.944-5.312-12-11.899-0.197-23.599-9.586-45.758-26.436-62.395-16.874-16.661-39.264-25.837-63.045-25.837s-46.171 9.176-63.045 25.837c-16.85 16.637-26.238 38.796-26.436 62.395-0.056 6.588-5.412 11.899-12 11.899h-173.61c-6.627 0-12-5.373-12-12V623.227c-58.102-4.87-103.885-53.506-103.885-112.587 0-59.083 45.783-107.721 103.885-112.592V177.907c0-6.627 5.373-12 12-12h173.617c6.562 0 11.906 5.27 11.999 11.831 0.331 23.489 9.778 45.523 26.602 62.045 16.854 16.553 39.184 25.668 62.874 25.668 23.691 0 46.021-9.116 62.874-25.668 16.821-16.521 26.269-38.556 26.6-62.045 0.093-6.552 5.424-11.818 11.976-11.831l155.826-0.299h0.023c6.617 0 11.987 5.357 12 11.977 0.013 6.627-5.35 12.01-11.977 12.023l-144.629 0.277c-3.003 25.371-14.483 48.832-33.003 67.02-21.369 20.987-49.67 32.545-79.69 32.545-30.02 0-58.321-11.558-79.69-32.545-18.516-18.183-29.995-41.636-33.002-66.999h-150.4v219.77a12 12 0 0 1-3.608 8.578 11.958 11.958 0 0 1-8.656 3.419 94.293 94.293 0 0 0-2.128-0.026c-49.346 0-89.492 39.922-89.492 88.993 0 49.068 40.146 88.988 89.492 88.988 0.71 0 1.419-0.011 2.128-0.026a12 12 0 0 1 12.264 11.997V835.37H434.5c2.885-25.482 14.312-49.064 32.853-67.371 21.396-21.126 49.774-32.76 79.908-32.76s58.513 11.634 79.908 32.76c18.541 18.307 29.968 41.889 32.853 67.371h171.331V337.938c0-6.627 5.373-12 12-12s12 5.373 12 12v509.433c0 6.627-5.374 12-12 12z" fill="" p-id="2088"></path><path d="M150.757 190.1c-6.624 0-11.995-5.367-12-11.992-0.005-6.627 5.364-12.003 11.992-12.008l288.396-0.193h0.008c6.624 0 11.995 5.367 12 11.992 0.005 6.627-5.364 12.003-11.992 12.008l-288.396 0.193h-0.008zM150.757 859.105c-6.624 0-11.995-5.367-12-11.992-0.005-6.627 5.364-12.003 11.992-12.008l288.396-0.195h0.008c6.624 0 11.995 5.367 12 11.992 0.005 6.627-5.364 12.003-11.992 12.008l-288.396 0.195h-0.008z" fill="" p-id="2089"></path><path d="M541.472 643.728a7.076 7.076 0 0 1-10.051 0L346.394 461.45c-2.773-2.792-2.775-7.32 0-10.113l70.322-76.219a7.08 7.08 0 0 1 10.053 0l109.207 107.47 263.697-260.677a7.082 7.082 0 0 1 10.053 0l70.994 75.614c2.777 2.793 2.775 7.319 0 10.111L541.472 643.728z" fill="#FFFFFF" p-id="2090"></path><path d="M536.447 657.823c-5.09 0-9.874-1.98-13.48-5.578L337.972 469.999l-0.092-0.092c-7.338-7.387-7.401-19.365-0.191-26.832l70.208-76.095a18.955 18.955 0 0 1 13.845-5.956c5.091 0 9.875 1.98 13.481 5.577l100.734 99.131 255.279-252.356c3.543-3.56 8.349-5.559 13.463-5.559a18.963 18.963 0 0 1 13.774 5.879l70.903 75.518c7.262 7.464 7.213 19.478-0.146 26.882L549.917 652.252c-3.545 3.569-8.353 5.571-13.47 5.571zM358.2 456.236l178.236 175.589L868.894 302.46l-64.327-68.514-260.155 257.176c-4.667 4.613-12.175 4.623-16.854 0.019L421.916 387.178 358.2 456.236z" fill="" p-id="2091"></path><path d="M382.313 478.501l44.184-42.681 110 107.006 265-266.006 45.375 46.493L536.833 632.64z" fill="#FCFFB6" p-id="2092"></path><path d="M626.498 642.826a11.966 11.966 0 0 1-8.625-3.655c-4.608-4.763-4.483-12.36 0.279-16.969l109.889-106.33c4.764-4.607 12.36-4.482 16.969 0.279 4.608 4.763 4.483 12.36-0.279 16.969L634.842 639.45a11.964 11.964 0 0 1-8.344 3.376z" fill="" p-id="2093"></path></svg>