<?xml version="1.0" standalone="no"?><!DOCTYPE svg PUBLIC "-//W3C//DTD SVG 1.1//EN" "http://www.w3.org/Graphics/SVG/1.1/DTD/svg11.dtd"><svg t="1587999002238" class="icon" viewBox="0 0 1024 1024" version="1.1" xmlns="http://www.w3.org/2000/svg" p-id="8427" width="32" height="32" xmlns:xlink="http://www.w3.org/1999/xlink"><defs><style type="text/css"></style></defs><path d="M948.08064 491.52H452.8128c-1.2288-0.06144-2.19136-1.14688-2.2528-2.49856v-76.8c0-1.41312 1.00352-2.56 2.2528-2.62144h495.26784c19.59936 1.14688 34.95936 19.0464 34.95936 40.7552 0 21.66784-15.36 39.56736-34.95936 40.71424M824.66816 395.93984H480.1536c-1.2288-0.06144-2.2528-1.14688-2.29376-2.49856v-76.8c0-1.41312 1.024-2.56 2.29376-2.62144h344.51456c19.88608 1.14688 35.49184 19.12832 35.49184 40.89856 0 21.79072-15.60576 39.75168-35.49184 40.91904" fill="#DFECFF" p-id="8428"></path><path d="M143.40096 860.16c-2.048-165.0688 75.5712-318.60736 203.14112-401.8176 127.54944-83.18976 285.2864-83.18976 412.83584 0 127.54944 83.21024 205.16864 236.7488 203.1616 401.8176" fill="#A9CCFF" p-id="8429"></path><path d="M552.71424 240.66048c-56.77056 0.1024-102.72768 48.27136-102.66624 107.6224 0.08192 59.35104 46.12096 107.39712 102.89152 107.37664 56.75008-0.04096 102.74816-48.14848 102.74816-107.49952-0.14336-59.392-46.1824-107.43808-102.97344-107.49952m-156.7744 107.3152a157.02016 157.02016 0 0 1 314.04032 0.2048 157.2864 157.2864 0 0 1-157.2864 156.99968 157.02016 157.02016 0 0 1-156.75392-157.20448z" fill="#418CFA" p-id="8430"></path><path d="M788.00896 664.00256C745.1648 572.45696 653.7216 512 552.96 512c-139.8784 0-254.52544 109.21984-259.42016 246.86592a20.48 20.48 0 0 1-40.93952-1.4336C258.29376 597.56544 391.12704 471.04 552.96 471.04c116.96128 0 222.67904 69.91872 272.13824 175.616a300.09344 300.09344 0 0 1 28.22144 116.65408l0.75776 21.2992-21.31968-0.1024-23.90016-0.12288c-72.3968-0.3072-166.6048-0.28672-330.71104 0.38912a20.48 20.48 0 1 1-0.16384-40.96 39609.22112 39609.22112 0 0 1 332.75904-0.36864 259.80928 259.80928 0 0 0-22.7328-79.44192z m-385.65888 79.9744a20.48 20.48 0 1 1 0.12288 40.96h-3.42016c-1.24928 0.08192-3.33824 0.1024-13.9264 0.12288a20.48 20.48 0 0 1-0.1024-40.96 1329.11104 1329.11104 0 0 0 17.32608-0.12288z" fill="#418CFA" p-id="8431"></path><path d="M552.96 467.51744a119.45984 119.45984 0 1 0 0-238.94016 119.45984 119.45984 0 0 0 0 238.94016z" fill="#F9F9F9" p-id="8432"></path><path d="M499.36384 95.92832c-0.04096 8.192 4.36224 15.81056 11.55072 19.92704 7.18848 4.096 16.0768 4.096 23.26528 0 7.18848-4.11648 11.61216-11.73504 11.55072-19.92704 0.06144-8.192-4.36224-15.81056-11.55072-19.92704a23.47008 23.47008 0 0 0-23.26528 0 22.79424 22.79424 0 0 0-11.55072 19.92704z" fill="#3666F6" p-id="8433"></path><path d="M1023.26272 690.76992c0 15.36-12.63616 27.81184-28.20096 27.81184-15.5648 0.02048-28.20096-12.41088-28.24192-27.77088a28.01664 28.01664 0 0 1 28.13952-27.87328c7.49568-0.02048 14.70464 2.90816 20.00896 8.11008 5.30432 5.2224 8.2944 12.32896 8.2944 19.72224z" fill="#0457D1" p-id="8434"></path><path d="M59.392 530.08384c0 11.83744-7.24992 22.528-18.35008 27.0336-11.07968 4.54656-23.8592 2.048-32.3584-6.3488a28.9792 28.9792 0 0 1-6.41024-31.88736 29.696 29.696 0 0 1 27.42272-18.08384c7.8848 0 15.44192 3.072 21.01248 8.56064s8.68352 12.94336 8.66304 20.72576zM303.55456 42.33216c0 16.896-13.86496 30.57664-31.00672 30.57664a30.80192 30.80192 0 0 1-30.98624-30.57664c0-16.896 13.86496-30.57664 30.98624-30.57664 8.23296 0 16.11776 3.21536 21.93408 8.94976 5.81632 5.7344 9.07264 13.5168 9.07264 21.62688z" fill="#418CFA" p-id="8435"></path><path d="M667.56608 987.5456c0 11.34592 6.144 21.85216 16.13824 27.52512a32.62464 32.62464 0 0 0 32.23552 0c9.97376-5.67296 16.13824-16.1792 16.13824-27.5456 0-11.34592-6.144-21.85216-16.13824-27.52512a32.62464 32.62464 0 0 0-32.23552 0c-9.99424 5.67296-16.13824 16.1792-16.13824 27.52512z" fill="#C6DDFF" p-id="8436"></path><path d="M107.66336 750.94016C93.22496 749.9776 81.92 734.96576 81.92 716.8s11.30496-33.1776 25.74336-34.14016H184.32a34.14016 34.14016 0 1 1 0 68.25984H107.66336z" fill="#DFECFF" p-id="8437"></path><path d="M168.50944 805.53984H49.95072c-20.35712-0.96256-36.29056-15.95392-36.29056-34.14016 0-18.16576 15.93344-33.1776 36.29056-34.11968h118.55872c20.33664 0.96256 36.29056 15.95392 36.29056 34.11968 0 18.18624-15.95392 33.1776-36.29056 34.14016M75.93984 901.12C56.34048 899.93216 40.96 881.95072 40.96 860.16s15.36-39.81312 34.97984-40.96h386.00704a40.96 40.96 0 1 1 0 81.92H75.93984z" fill="#DFECFF" p-id="8438"></path></svg>