<?xml version="1.0" standalone="no"?><!DOCTYPE svg PUBLIC "-//W3C//DTD SVG 1.1//EN" "http://www.w3.org/Graphics/SVG/1.1/DTD/svg11.dtd"><svg t="1588231802592" class="icon" viewBox="0 0 1024 1024" version="1.1" xmlns="http://www.w3.org/2000/svg" p-id="5669" xmlns:xlink="http://www.w3.org/1999/xlink" width="48" height="48"><defs><style type="text/css"></style></defs><path d="M588.56 575.75m-298.5 0a298.5 298.5 0 1 0 597 0 298.5 298.5 0 1 0-597 0Z" fill="#BAD4FF" p-id="5670"></path><path d="M574.32 561.51m-312.74 0a312.74 312.74 0 1 0 625.48 0 312.74 312.74 0 1 0-625.48 0Z" fill="#F5F5F5" p-id="5671" data-spm-anchor-id="a313x.7781069.0.i12" class=""></path><path d="M433.55 492.11a13.77 13.77 0 0 1-8.33-2.8L371.86 449a13.82 13.82 0 0 1-2.8-19.21c0.1-0.14 10.19-13.88 20.37-27.52 6-8 10.86-14.48 14.45-19.14 7.3-9.48 9.27-12 13.87-13.57A13.84 13.84 0 0 1 431.33 393c-3.32 3.84-17.43 22.61-31.89 42.17l42.47 32.12a13.83 13.83 0 0 1-8.36 24.86z m-7-96.36z m0 0z m0 0z" fill="#DCDCDC" p-id="5672" data-spm-anchor-id="a313x.7781069.0.i16" class=""></path><path d="M513 98.23c-228.77 0-414.89 186.11-414.89 414.89a424.87 424.87 0 0 0 6.51 71c0 0.14 0.25 0.08 0.3 0.2A13.65 13.65 0 0 0 118 594.43a13.83 13.83 0 0 0 13.83-13.83 12 12 0 0 0-0.27-1.33l0.24-0.11a388.23 388.23 0 0 1-6-66C125.77 299.27 299.14 125.9 513 125.9s387.23 173.37 387.23 387.24S726.86 900.37 513 900.37c-142.92 0-267.43-77.64-334.52-192.84a1.08 1.08 0 0 0-0.11-0.18c-0.18-0.31-0.38-0.59-0.55-0.89a13.68 13.68 0 0 0-12-7.42 13.83 13.83 0 0 0-13.83 13.83 13.49 13.49 0 0 0 2.76 7.87l-0.23 0.14C226.36 844.52 360 928 513 928c228.77 0 414.89-186.11 414.89-414.9S741.77 98.23 513 98.23z" fill="#DCDCDC" p-id="5673" data-spm-anchor-id="a313x.7781069.0.i18" class=""></path><path d="M596 416.67H380v27.66h216a92.21 92.21 0 1 1 0 184.41H393.82v27.66H596a119.87 119.87 0 1 0 0-239.73z" fill="#DCDCDC" p-id="5674" data-spm-anchor-id="a313x.7781069.0.i14" class=""></path><path d="M393.82 642.57m-13.83 0a13.83 13.83 0 1 0 27.66 0 13.83 13.83 0 1 0-27.66 0Z" fill="#DCDCDC" p-id="5675" data-spm-anchor-id="a313x.7781069.0.i17" class=""></path><path d="M484.31 473.84h100a66 66 0 0 1 66 66 66 66 0 0 1-66 66h-100v-132z" fill="#F5F5F5" p-id="5676" data-spm-anchor-id="a313x.7781069.0.i15" class=""></path></svg>