<?xml version="1.0" standalone="no"?><!DOCTYPE svg PUBLIC "-//W3C//DTD SVG 1.1//EN" "http://www.w3.org/Graphics/SVG/1.1/DTD/svg11.dtd"><svg t="1587999611296" class="icon" viewBox="0 0 1025 1024" version="1.1" xmlns="http://www.w3.org/2000/svg" p-id="24571" xmlns:xlink="http://www.w3.org/1999/xlink" width="32.03125" height="32"><defs><style type="text/css"></style></defs><path d="M829.421902 276.770909L370.195361 29.987301C253.095792-32.721757 102.508733 6.098136 33.827384 116.798821c-68.68135 110.700685-29.434864 251.476123 87.451408 314.398477l459.226541 246.570312c117.099569 62.922355 267.686628 24.102461 336.367977-86.81152 68.68135-110.700685 29.434864-251.476123-87.451408-314.185181z" fill="#6CABFF" opacity=".2" p-id="24572"></path><path d="M903.862247 592.875756L444.635706 346.092147C327.749434 283.383089 177.162375 322.202982 108.481025 432.903667c-68.68135 110.700685-29.434864 251.476123 87.451408 314.398478l459.226541 246.570312c117.099569 62.922355 267.686628 24.102461 336.367978-86.81152 68.68135-110.700685 29.434864-251.476123-87.664705-314.185181z" fill="#6CABFF" opacity=".502" p-id="24573"></path><path d="M84.59186 512.036527a427.872012 426.592235 0 1 0 855.744023 0 427.872012 426.592235 0 1 0-855.744023 0Z" fill="#6CABFF" p-id="24574"></path><path d="M706.350042 341.399633H318.364404c-22.396092 0-40.739558 17.916874-40.739558 39.886374v239.958132c0 21.9695 18.343466 39.886374 40.739558 39.886374h74.227049c7.252068 0 13.224359 5.758995 13.22436 13.011063v58.656433c0 5.332403 3.199442 10.024918 8.105252 12.371175 1.919665 0.853184 3.83933 1.279777 5.758995 1.279776 3.199442 0 6.398884-1.066481 8.958437-3.199442l91.504035-78.919563c2.346257-2.132961 5.545699-3.199442 8.531844-3.199442h177.675666c22.396092 0 40.739558-17.916874 40.739559-39.886374V381.286007c0-21.9695-18.343466-39.886374-40.739559-39.886374z m18.983355 285.816797c0 7.252068-5.972291 13.011063-13.224359 13.011064h-189.833545c-9.598325 0-18.983354 3.412738-26.448719 9.598325l-68.894646 59.296321v-33.487491c0-21.9695-11.944583-35.407156-34.340675-35.407155h-80.19934c-7.252068 0-13.224359-5.758995-13.224359-13.011064V375.527012c0-7.252068 5.972291-13.011063 13.224359-13.011063h399.716925c7.252068 0 13.224359 5.758995 13.224359 13.011063v251.689418z" fill="#FFFFFF" p-id="24575"></path><path d="M405.815813 512.036527m-21.329612 0a21.329612 21.329612 0 1 0 42.659223 0 21.329612 21.329612 0 1 0-42.659223 0Z" fill="#FFFFFF" p-id="24576"></path><path d="M512.463871 512.036527m-21.329611 0a21.329612 21.329612 0 1 0 42.659223 0 21.329612 21.329612 0 1 0-42.659223 0Z" fill="#FFFFFF" p-id="24577"></path><path d="M619.11193 512.036527m-21.329611 0a21.329612 21.329612 0 1 0 42.659223 0 21.329612 21.329612 0 1 0-42.659223 0Z" fill="#FFFFFF" p-id="24578"></path></svg>