<?xml version="1.0" standalone="no"?><!DOCTYPE svg PUBLIC "-//W3C//DTD SVG 1.1//EN" "http://www.w3.org/Graphics/SVG/1.1/DTD/svg11.dtd"><svg t="1588563605680" class="icon" viewBox="0 0 1060 1024" version="1.1" xmlns="http://www.w3.org/2000/svg" p-id="21755" xmlns:xlink="http://www.w3.org/1999/xlink" width="66.25" height="64"><defs><style type="text/css"></style></defs><path d="M843.043659 1024H210.760915c-55.351351 0-100.058212-44.706861-100.058212-100.058212V100.058212c0-55.351351 44.706861-100.058212 100.058212-100.058212h452.390852c26.611227 0 52.158004 10.644491 70.253638 29.804574l179.891892 178.827443c19.160083 18.095634 29.804574 43.642412 29.804574 70.253638v645.056133c0 55.351351-44.706861 100.058212-100.058212 100.058212zM210.760915 63.866944c-20.224532 0-36.191268 15.966736-36.191268 36.191268v823.883576c0 20.224532 15.966736 36.191268 36.191268 36.191268h632.282744c20.224532 0 36.191268-15.966736 36.191268-36.191268V279.950104c0-9.580042-4.257796-19.160083-10.64449-25.546778L688.698545 74.511435c-6.386694-6.386694-15.966736-10.644491-25.546778-10.644491H210.760915z" fill="#FFBA55" p-id="21756"></path><path d="M911.168399 306.561331H672.731809c-18.095634 0-31.933472-13.837838-31.933472-31.933472V36.191268c0-15.966736 12.773389-29.804574 28.740125-31.933472 22.35343-1.064449 44.706861 7.451143 60.673596 23.41788l191.600832 192.66528c13.837838 14.902287 20.224532 34.06237 20.224532 54.286903 0 17.031185-13.837838 30.869023-30.869023 31.933472z m-206.503118-63.866944h150.087318L704.665281 92.607069v150.087318zM0 459.841996h1060.191268v367.234927H0z" fill="#FFBA55" p-id="21757"></path><path d="M323.592516 546.06237c18.095634 14.902287 28.740125 36.191268 31.933472 58.544699h-35.12682c-3.193347-14.902287-11.70894-27.675676-23.417879-36.191269-12.773389-8.515593-28.740125-12.773389-43.642412-11.708939-23.417879-2.128898-45.77131 8.515593-59.609147 26.611226-13.837838 19.160083-20.224532 43.642412-19.160083 67.060291-2.128898 24.482328 4.257796 47.900208 18.095634 68.124741 12.773389 17.031185 32.997921 25.546778 60.673596 25.546777 15.966736 1.064449 31.933472-4.257796 44.706861-13.837838 12.773389-10.644491 22.35343-25.546778 25.546778-42.577962h36.191268c-4.257796 25.546778-18.095634 48.964657-38.320167 65.995842-19.160083 14.902287-42.577963 23.417879-67.060291 22.35343-39.384615 0-69.189189-12.773389-89.413721-38.320166-20.224532-25.546778-28.740125-54.286902-26.611227-87.284824-1.064449-31.933472 8.515593-62.802495 27.675676-88.349272 20.224532-25.546778 48.964657-38.320166 88.349272-38.320166 24.482328-1.064449 48.964657 7.451143 69.18919 22.35343zM583.318087 541.804574c18.095634 13.837838 28.740125 36.191268 28.740125 58.544698H574.802495c-2.128898-13.837838-8.515593-25.546778-19.160083-34.06237-12.773389-7.451143-26.611227-11.70894-41.513514-10.64449-12.773389-1.064449-25.546778 2.128898-37.255717 7.451143-10.644491 4.257796-17.031185 14.902287-15.966736 26.611227 0 11.70894 7.451143 21.288981 18.095634 25.546777 13.837838 6.386694 27.675676 11.70894 42.577963 14.902287 22.35343 5.322245 43.642412 13.837838 63.866943 23.41788 20.224532 10.644491 31.933472 30.869023 31.933472 53.222453 1.064449 20.224532-8.515593 39.384615-25.546777 51.093555-21.288981 13.837838-45.77131 19.160083-71.318087 18.095634-24.482328 1.064449-48.964657-5.322245-69.18919-18.095634-20.224532-13.837838-30.869023-36.191268-32.997921-67.060291h37.255718c1.064449 15.966736 8.515593 30.869023 20.224532 41.513513 13.837838 8.515593 29.804574 12.773389 45.77131 11.70894 14.902287 0 29.804574-3.193347 42.577962-9.580042 9.580042-5.322245 15.966736-14.902287 15.966736-25.546777-1.064449-13.837838-9.580042-26.611227-23.417879-31.933472L508.806653 659.95842c-19.160083-5.322245-37.255717-12.773389-55.351352-20.224532-18.095634-9.580042-28.740125-28.740125-27.675675-48.964657-1.064449-20.224532 9.580042-39.384615 26.611226-50.029106 19.160083-11.70894 41.513514-18.095634 63.866944-17.031185 23.417879-1.064449 46.835759 5.322245 67.060291 18.095634zM837.721414 541.804574c18.095634 13.837838 28.740125 36.191268 28.740124 58.544698h-37.255717c-2.128898-13.837838-8.515593-25.546778-19.160083-34.06237-12.773389-7.451143-26.611227-11.70894-41.513513-10.64449-12.773389-1.064449-25.546778 2.128898-37.255718 7.451143-10.644491 4.257796-17.031185 14.902287-15.966736 26.611227 1.064449 11.70894 8.515593 21.288981 19.160083 25.546777 13.837838 6.386694 27.675676 11.70894 42.577963 14.902287 22.35343 5.322245 43.642412 13.837838 63.866944 23.41788 19.160083 10.644491 30.869023 30.869023 30.869023 52.158004 1.064449 20.224532-8.515593 39.384615-25.546778 51.093555-21.288981 13.837838-45.77131 19.160083-71.318087 18.095634-24.482328 1.064449-48.964657-5.322245-69.189189-18.095634-20.224532-13.837838-30.869023-36.191268-32.997921-67.060291h37.255717c1.064449 15.966736 8.515593 30.869023 20.224532 41.513513 13.837838 8.515593 29.804574 12.773389 45.77131 11.70894 14.902287 1.064449 29.804574-3.193347 43.642412-9.580042 9.580042-5.322245 15.966736-14.902287 15.966736-25.546777-1.064449-13.837838-9.580042-26.611227-23.41788-31.933472L763.209979 659.95842c-19.160083-5.322245-37.255717-12.773389-55.351351-20.224532-18.095634-9.580042-28.740125-28.740125-27.675676-48.964657-1.064449-20.224532 9.580042-39.384615 26.611227-50.029106 19.160083-11.70894 41.513514-18.095634 63.866944-17.031185 23.417879-1.064449 46.835759 5.322245 67.060291 18.095634z" fill="#FFFFFF" p-id="21758"></path></svg>