<?xml version="1.0" standalone="no"?><!DOCTYPE svg PUBLIC "-//W3C//DTD SVG 1.1//EN" "http://www.w3.org/Graphics/SVG/1.1/DTD/svg11.dtd"><svg t="1588579331078" class="icon" viewBox="0 0 1024 1024" version="1.1" xmlns="http://www.w3.org/2000/svg" p-id="9434" width="32" height="32" xmlns:xlink="http://www.w3.org/1999/xlink"><defs><style type="text/css"></style></defs><path d="M0 491.227429c0 214.454857 143.140571 396.726857 342.674286 463.725714 26.843429 6.509714 22.747429-11.922286 22.747428-24.356572V845.531429c-155.062857 17.481143-161.353143-81.188571-171.812571-97.572572-21.065143-34.523429-70.729143-43.300571-55.954286-59.757714 35.401143-17.408 71.387429 4.388571 113.005714 63.634286 30.208 42.861714 89.014857 35.693714 118.930286 28.525714 6.436571-25.819429 20.48-48.859429 39.643429-66.779429-160.621714-27.648-227.693714-121.856-227.693715-233.837714 0-54.272 18.651429-104.228571 55.222858-144.530286-23.259429-66.486857 2.194286-123.245714 5.632-131.657143 66.413714-5.851429 135.314286 45.568 140.726857 49.664a515.657143 515.657143 0 0 1 129.024-14.994285c48.420571 0 91.648 5.339429 129.682285 15.213714 12.873143-9.362286 76.873143-53.467429 138.605715-48.128 3.364571 8.484571 28.233143 64 6.363428 129.462857 37.010286 40.374857 55.881143 90.697143 55.881143 145.261714 0 112.201143-67.364571 206.482286-228.571428 233.691429 26.916571 25.526857 43.593143 60.781714 43.593142 99.913143v123.611428c0.877714 9.801143 0 19.602286 17.188572 19.602286 202.386286-65.462857 348.16-249.197714 348.16-465.554286 0-271.36-229.083429-491.008-511.488-491.008C228.864 0.219429 0 219.940571 0 491.227429z" fill="#999999" p-id="9435"></path></svg>