<?xml version="1.0" standalone="no"?><!DOCTYPE svg PUBLIC "-//W3C//DTD SVG 1.1//EN" "http://www.w3.org/Graphics/SVG/1.1/DTD/svg11.dtd"><svg t="1588644207256" class="icon" viewBox="0 0 1024 1024" version="1.1" xmlns="http://www.w3.org/2000/svg" p-id="3196" xmlns:xlink="http://www.w3.org/1999/xlink" width="32" height="32"><defs><style type="text/css"></style></defs><path d="M530.781 928.873c-0.607 0.312-1.198 0.608-1.666 0.822-4.552 2.452-11.5 4.16-18.364 4.16-1.826 0-5.986-0.372-7.771-0.705-3.708-0.57-8.105-1.983-12.125-4.042-0.156-0.097-0.333-0.177-0.548-0.295-409.479-167.534-348.279-641.878-347.591-646.667 2.611-18.799 16.639-33.75 34.906-37.184 133.784-25.253 281.222-126.778 304.239-143.065 4.885-4.316 10.577-8.065 16.622-9.733 6.906-2.376 15.386-2.649 23.33-0.489 7.179 1.924 13.656 5.534 18.935 10.554 25.372 17.66 172.716 117.872 305.438 142.732 18.23 3.397 32.278 18.309 34.927 37.104 0.038 0.022 0.038 0.037 0.038 0.060 0.67 4.792 61.894 479.468-350.367 646.747zM841.378 307.694c0 0 0-0.022-0.021-0.037-2.354-16.934-14.833-30.375-31.042-33.417-117.889-22.409-248.767-118.83-271.315-134.747-4.69-4.514-10.437-7.749-16.837-9.497-7.045-1.924-14.58-1.688-20.702 0.452-5.375 1.51-10.42 4.337-14.773 8.222-20.449 14.656-156.309 109.139-275.16 131.9-16.23 3.080-28.688 20.213-31.003 37.146-0.608 4.316-50.072 431.468 313.659 582.322 0.199 0.118 0.354 0.199 0.489 0.275 3.574 1.865 7.476 3.139 10.77 3.649 1.59 0.295 5.299 0.628 6.889 0.628 6.122 0 12.284-1.532 16.327-3.747 0.414-0.177 0.941-0.452 1.489-0.746 366.213-150.617 311.821-578.087 311.23-582.403zM280.749 406.076h26.245v238.617h-26.245v-238.617zM534.87 562.367l31.025 7.155c-15.12 51.713-49.717 77.946-103.798 78.743-68.416-3.986-104.6-43.34-108.57-118.113 3.172-81.131 40.158-123.672 110.958-127.659 45.339 1.603 77.549 24.663 96.643 69.2l-29.827 7.16c-14.322-34.189-37.403-51.692-69.209-52.493-48.523 4.772-75.161 38.589-79.933 101.411 3.169 61.261 29.418 94.255 78.743 99.027 38.963-1.586 63.623-23.064 73.967-64.429zM705.485 548.053h-73.972v96.635h-26.249v-238.613h102.605c48.508 2.388 75.161 25.856 79.938 70.394-0.798 46.938-28.236 70.795-82.321 71.584zM700.713 429.938h-69.2v94.255h69.2c38.175-0.784 57.658-17.093 58.46-48.916-1.603-29.418-21.082-44.538-58.46-45.339z" fill="#a6a6a6" p-id="3197"></path></svg>