<?xml version="1.0" standalone="no"?><!DOCTYPE svg PUBLIC "-//W3C//DTD SVG 1.1//EN" "http://www.w3.org/Graphics/SVG/1.1/DTD/svg11.dtd"><svg t="1588318497021" class="icon" viewBox="0 0 1024 1024" version="1.1" xmlns="http://www.w3.org/2000/svg" p-id="5819" data-spm-anchor-id="a313x.7781069.0.i3" width="32" height="32" xmlns:xlink="http://www.w3.org/1999/xlink"><defs><style type="text/css"></style></defs><path d="M759.38 174.14c-87.1 0.09-161.91 52.62-194.6 127.71-4.47 10.26-18.94 10.25-23.4 0-32.6-74.89-107.1-127.33-193.91-127.7-115.67-0.49-211.15 92.6-213.27 208.26-4.64 253.32 418.88 467.47 418.88 467.47S975.27 637.1 971.98 383.6c-1.5-115.87-96.74-209.59-212.6-209.46z" fill="#e6e6e6" p-id="5820" data-spm-anchor-id="a313x.7781069.0.i0" class=""></path><path d="M490.92 869.86c-3.09 0-6.19-0.72-9.02-2.15-4.35-2.2-107.82-54.88-212.98-139.62-62.23-50.15-111.94-101.11-147.75-151.46C75.27 512.1 52 448.14 52 386.53c0-62.07 24.17-120.43 68.07-164.33 43.89-43.89 102.25-68.07 164.33-68.07 52.5 0 103.97 18.01 144.91 50.71 25.66 20.5 46.66 46.27 61.61 75.17 14.96-28.9 35.95-54.67 61.61-75.17 40.94-32.7 92.41-50.71 144.91-50.71 62.07 0 120.43 24.17 164.33 68.07 43.89 43.89 68.07 102.25 68.07 164.33 0 61.76-23.27 125.82-69.15 190.38-35.81 50.39-85.53 101.34-147.76 151.44-105.17 84.66-208.65 137.18-213 139.37a20.03 20.03 0 0 1-9.01 2.14zM284.39 194.14C178.31 194.14 92 280.44 92 386.53c0 53.13 20.78 109.29 61.75 166.91 33.69 47.37 80.87 95.65 140.25 143.5 84.42 68.03 169.59 115.69 196.92 130.33 27.4-14.65 112.98-62.43 197.44-130.51 59.24-47.75 106.31-95.96 139.91-143.3 40.85-57.56 61.56-113.73 61.56-166.94 0-106.09-86.31-192.39-192.39-192.39-44.1 0-85.57 14.51-119.95 41.97-33.38 26.66-57.22 64.08-67.13 105.36a20.003 20.003 0 0 1-19.45 15.33c-9.25 0-17.29-6.34-19.45-15.33-9.91-41.28-33.75-78.7-67.13-105.36-34.36-27.45-75.84-41.96-119.94-41.96z" fill="#ffffff" p-id="5821" data-spm-anchor-id="a313x.7781069.0.i2" class=""></path><path d="M815.71 378.98c-8.53 0-16.44-5.5-19.1-14.08-7.26-23.4-20.97-43.5-40.76-59.72-15.25-12.5-28.58-17.92-28.71-17.97-10.29-4.01-15.35-15.58-11.34-25.87 4.01-10.29 15.64-15.37 25.94-11.37 2.84 1.1 69.77 27.91 93.08 103.09 3.27 10.55-2.63 21.75-13.18 25.03-1.97 0.6-3.96 0.89-5.93 0.89z" fill="#ffffff" p-id="5822" data-spm-anchor-id="a313x.7781069.0.i4" class=""></path></svg>