<?xml version="1.0" standalone="no"?><!DOCTYPE svg PUBLIC "-//W3C//DTD SVG 1.1//EN" "http://www.w3.org/Graphics/SVG/1.1/DTD/svg11.dtd"><svg t="1588687882514" class="icon" viewBox="0 0 1024 1024" version="1.1" xmlns="http://www.w3.org/2000/svg" p-id="24245" xmlns:xlink="http://www.w3.org/1999/xlink" width="64" height="64"><defs><style type="text/css"></style></defs><path d="M926.72 770.730667c-53.589333-1.706667-95.232 4.096-130.048 18.773333-9.898667 4.096-26.282667 4.096-27.306667 16.725333 5.461333 5.461333 6.144 13.994667 10.581334 21.162667 8.192 13.312 22.186667 31.402667 34.816 40.618667l43.008 30.72c26.282667 16.042667 55.637333 25.258667 81.237333 41.301333 14.677333 9.216 29.354667 21.162667 44.373333 31.402667 7.509333 5.461333 11.946667 13.994667 21.504 17.408v-2.048c-4.778667-5.802667-6.144-14.677333-10.581333-21.162667l-20.138667-19.114667c-19.456-25.941333-43.690667-48.469333-69.632-67.242666-21.504-14.677333-68.266667-34.816-77.141333-59.392l-1.365333-1.706667c14.677333-1.706667 32.085333-6.485333 46.08-10.581333 22.869333-6.144 43.690667-4.778667 66.901333-10.581334l32.426667-9.216V781.653333c-11.946667-11.946667-20.821333-27.989333-33.450667-39.253333-34.133333-29.354667-71.68-58.026667-110.592-81.92-20.821333-13.312-47.786667-21.845333-69.632-33.450667-7.850667-4.096-21.504-6.144-26.282667-12.629333-11.946667-14.677333-18.773333-33.792-27.648-51.2l-54.954666-116.053333c-11.946667-25.941333-19.456-51.882667-34.133334-75.776-68.949333-113.322667-144.042667-181.589333-259.413333-249.173334-24.576-13.994667-53.930667-20.138667-85.674667-26.965333l-50.176-3.413333c-10.922667-4.778667-21.504-17.408-30.72-23.210667C150.186667 44.373333 51.541333-7.509333 23.552 61.098667 5.461333 104.106667 50.176 146.773333 65.536 168.618667c11.605333 15.36 26.282667 32.768 34.133333 49.834666 4.437333 11.264 6.144 23.210667 10.581334 35.157334l34.816 89.429333 24.576 41.301333c5.461333 7.509333 14.677333 10.581333 16.725333 22.528-9.216 13.312-9.898667 33.450667-15.36 49.834667-23.893333 75.434667-14.677333 168.618667 19.456 224.256 10.922667 16.725333 36.181333 53.248 70.314667 39.253333 30.037333-11.946667 23.552-49.834667 32.085333-83.285333 2.048-7.850667 0.682667-13.312 4.778667-18.773333v1.706666l27.648 55.296c20.821333 32.768 57.002667 66.56 87.04 89.429334 16.042667 11.946667 28.672 32.768 48.810666 39.936v-2.048h-1.365333c-4.096-6.144-9.898667-8.533333-15.36-13.312-11.946667-11.946667-25.258667-26.624-34.816-39.936-27.989333-37.205333-52.906667-78.506667-75.093333-121.173334-10.922667-20.48-20.138667-43.349333-28.672-63.829333-4.096-7.850667-4.096-20.138667-10.922667-23.893333-9.898667 14.677333-24.576 26.965333-32.426667 45.397333-12.629333 28.672-13.994667 63.829333-18.773333 100.693333-2.730667 0.682667-1.706667 0-2.730667 1.706667-21.504-5.461333-28.672-26.965333-36.864-46.08C183.978667 594.602667 180.906667 518.826667 197.973333 464.213333c4.778667-13.994667 24.917333-58.026667 17.066667-71.338666-4.096-12.629333-17.408-20.138667-24.917333-30.037334-9.216-13.312-17.408-27.648-24.234667-42.666666-16.042667-37.205333-24.234667-78.506667-41.642667-115.712-7.850667-17.408-22.186667-35.157333-33.450666-51.2-12.629333-18.090667-26.624-30.72-36.864-51.882667-3.413333-7.509333-8.192-19.456-2.730667-26.965333 1.365333-5.461333 4.096-7.509333 9.216-8.533334 8.533333-7.509333 33.450667 2.048 42.325333 5.802667 24.576 9.898667 45.738667 19.456 66.218667 33.450667 9.216 6.826667 19.456 19.456 31.402667 22.869333h13.994666c21.504 4.778667 45.738667 1.706667 65.536 7.509333 35.498667 11.264 67.584 27.989333 96.597334 46.08 87.722667 55.296 160.085333 133.802667 209.237333 227.669334 8.192 15.36 11.264 29.354667 18.773333 45.397333l45.738667 97.962667c13.994667 31.402667 27.648 63.146667 47.786667 89.429333 9.898667 13.994667 50.176 21.162667 68.266666 28.672 13.312 5.802667 34.133333 11.264 46.421334 18.773333l66.901333 45.397334c10.581333 7.850667 44.373333 24.576 46.08 37.888l1.024-2.048zM243.370667 191.829333c-9.216 0-18.432 1.024-27.306667 3.413334v1.706666h1.365333c5.461333 10.581333 14.677333 18.090667 21.504 26.965334l15.36 32.085333 1.365334-1.706667c9.216-6.485333 13.994667-17.408 13.994666-33.450666-4.096-4.778667-4.778667-9.216-8.192-13.994667-4.096-6.826667-12.629333-9.898667-18.090666-15.36v0.341333z" fill="#00678C" p-id="24246"></path></svg>