<?xml version="1.0" standalone="no"?><!DOCTYPE svg PUBLIC "-//W3C//DTD SVG 1.1//EN" "http://www.w3.org/Graphics/SVG/1.1/DTD/svg11.dtd"><svg t="1588581743909" class="icon" viewBox="0 0 1024 1024" version="1.1" xmlns="http://www.w3.org/2000/svg" p-id="21139" xmlns:xlink="http://www.w3.org/1999/xlink" width="32" height="32"><defs><style type="text/css"></style></defs><path d="M546.19722347 989.0846912h-69.27908374c-243.87583253 0-443.4106048-199.53477227-443.4106048-443.4106048v-69.27908373c0-243.87583253 199.53477227-443.4106048 443.4106048-443.4106048h69.27908374c243.87583253 0 443.4106048 199.53477227 443.4106048 443.4106048v69.27908373c-0.00109227 243.87583253-199.53586453 443.4106048-443.4106048 443.4106048z" fill="#5EAADE" p-id="21140"></path><path d="M743.9572608 634.98746667c-3.36708053-42.2703552-25.64791787-89.3308544-34.7989952-112.9714112l-23.5564608-60.8499136c-0.7481184-25.31262933 6.73306987-83.54358187-32.5448096-156.3852416s-118.2082432-79.40763093-132.7971072-80.1557504c-14.588864-0.7481184-105.86373547-1.49623787-150.7530528 77.80764053-44.88931733 79.30387733-32.79381867 158.73335147-32.79381867 158.73335147l-25.092016 61.30970666c-0.00109227 0.00218453-11.69249707 27.9709088-21.79155626 62.010864-10.1001504 34.04104747-20.20030187 87.53427733-10.10015147 98.3825472 10.1001504 10.84826987 46.75906773-49.75263573 50.12614933-55.36298133 0 0 2.61896213 28.99097173 9.53878934 44.14119787l0.86388586 1.8948704 0.35276267 0.77105386 0.4040928 0.88136107 0.31999893 0.695696 0.4739904 1.02443093 0.21624427 0.46416107a300.2293888 300.2293888 0 0 0 2.0455872 4.2932192l0.2009536 0.41173867c0.24682453 0.50457067 0.4991104 1.01678613 0.75904107 1.538832l0.15508373 0.3112608c7.3457632 14.72756693 19.85190827 36.07789653 39.93971947 53.78155626l0.0185664 0.01638187-1.26251947 0.41283093c-11.37795947 3.75042347-33.807328 11.9567968-43.3330112 21.14063787-1.8315264 1.76599787-3.1868768 3.5680352-3.8934944 5.38208747-5.73485013 14.71336853 4.4887136 16.45970773 21.94664107 17.4568352 17.4568352 0.99712747 101.2505184 3.24257707 141.4010208-2.3688608 0.43467307-0.06006827 0.8398592-0.12122773 1.24941333-0.18238827 2.8909056 0.1004768 5.67805867 0.151808 8.35053547 0.17146667l0.16163733 0.00109226c0.89118933 0.00546027 1.77364267 0.00873707 2.63971307 0.00873707 0.5296896 0 1.08231467-0.00218453 1.64476906-0.0065536l0.22388907-0.0010912a237.43218133 237.43218133 0 0 0 5.82659093-0.11358293c0.2774048 0.0404096 0.54170347 0.0808192 0.8300288 0.12122773 40.15159467 5.61143787 123.9441856 3.36708053 141.4010208 2.3688608 17.4568352-0.99712747 27.68149013-2.74346667 21.9455488-17.4568352-4.58809813-11.772224-36.45250133-23.06062827-49.01980693-27.10702293a150.81421333 150.81421333 0 0 0 8.4892384-8.15504107l0.2522848-0.26102293a151.99372907 151.99372907 0 0 0 2.69978133-2.88216854c45.26282987-49.75263573 41.52223573-81.17472107 43.3930784-99.13066666 0 0 38.16061547 54.98946773 46.38773974 56.86031146 8.2271232 1.87084373 10.84608533-6.7319776 7.47900373-49.00342506z" fill="#FFFFFF" p-id="21141"></path></svg>