<?xml version="1.0" standalone="no"?><!DOCTYPE svg PUBLIC "-//W3C//DTD SVG 1.1//EN" "http://www.w3.org/Graphics/SVG/1.1/DTD/svg11.dtd"><svg t="1587692196788" class="icon" viewBox="0 0 1024 1024" version="1.1" xmlns="http://www.w3.org/2000/svg" p-id="1868" width="32" height="32" xmlns:xlink="http://www.w3.org/1999/xlink"><defs><style type="text/css"></style></defs><path d="M526.082 151.17c-149.539 0-270.764 121.134-270.764 270.559a272.67 272.67 0 0 0 6 56.947c5.93 27.744 11.934 51.532 36.199 68.161 26.414 18.1 55.58 21.582 86.381 12.268 24.254-7.338 42.051-31.299 50.309-54.106 10.771-29.758-8.219-53.367-8.219-83.268 0-55.383 44.814-100.278 100.094-100.278s100.094 44.896 100.094 100.276c0 26.699-11.314 53.762-30.414 72.23-23.873 23.089-55.73 22.169-85.303 32.184-22.799 7.721-43.096 20.473-59.947 37.633-13.244 13.49-22.924 30.406-28.848 48.369-5.438 16.104-8.422 34.957-7.617 57.031v94.355s2.625 18.498 17.424 22.725l134.414 0.092s24.154-0.092 25.6-29.236c1.035-20.82 0.77-36.693-0.391-57.492-1.24-22.266 13.906-20.656 31.426-26.789 32.123-11.242 64.002-29.791 88.662-53.27 33.883-32.262 60.947-73.037 73.652-118.278 7.031-25.035 12.014-53.484 12.014-79.559-0.002-149.422-121.227-270.554-270.766-270.554z" fill="#D1D9E0" p-id="1869"></path><path d="M526.082 191.17c31.175 0 61.395 6.092 89.821 18.106 27.476 11.612 52.159 28.244 73.364 49.433 21.204 21.187 37.847 45.848 49.466 73.296 12.02 28.395 18.114 58.581 18.114 89.719 0 20.167-3.737 44.58-10.523 68.744-10.132 36.077-31.822 70.699-62.725 100.123-19.796 18.848-46.181 34.646-74.296 44.485-2.115 0.74-4.641 1.419-7.315 2.138-8.74 2.348-20.711 5.563-31.438 14.746-9.655 8.265-20.857 23.628-19.395 49.887 0.97 17.399 1.204 30.318 0.742 44.491l-97.852-0.066v-77.825l-0.026-0.729c-0.576-15.79 1.289-30.183 5.541-42.777l0.046-0.135 0.044-0.135c4.26-12.915 10.969-24.282 19.4-32.87 12.488-12.717 27.372-22.062 44.237-27.772 7.002-2.371 14.957-4.119 23.379-5.971 23.265-5.112 52.219-11.475 76.899-35.345 13.211-12.775 24.083-28.78 31.439-46.287 7.307-17.387 11.169-36.301 11.169-54.699 0-37.455-14.563-72.672-41.007-99.165-12.853-12.875-27.831-22.99-44.52-30.062-17.305-7.333-35.663-11.05-54.567-11.05s-37.263 3.718-54.567 11.05c-16.688 7.072-31.667 17.186-44.52 30.062-26.443 26.492-41.007 61.71-41.007 99.166 0 17.279 4.084 32.119 7.366 44.042 3.922 14.25 5.218 20.15 3.242 25.608-5.205 14.375-15.417 26.756-24.277 29.437-7.214 2.182-14.129 3.287-20.554 3.287-11.209 0-21.559-3.357-31.637-10.263-10.415-7.137-14.052-17.128-19.694-43.526a232.886 232.886 0 0 1-5.116-48.586c0-31.139 6.094-61.326 18.113-89.721 11.619-27.449 28.262-52.11 49.465-73.297 21.205-21.189 45.889-37.821 73.364-49.434 28.431-12.013 58.651-18.105 89.825-18.105m0-40c-149.539 0-270.764 121.134-270.764 270.559a272.67 272.67 0 0 0 6 56.947c5.93 27.744 11.934 51.532 36.199 68.161 17.037 11.675 35.221 17.268 54.248 17.268 10.472 0 21.199-1.693 32.133-5 24.254-7.338 42.051-31.299 50.309-54.106 10.771-29.758-8.219-53.367-8.219-83.268 0-55.383 44.814-100.278 100.094-100.278s100.094 44.896 100.094 100.276c0 26.699-11.314 53.762-30.414 72.23-23.873 23.089-55.73 22.169-85.303 32.184-22.799 7.721-43.096 20.473-59.947 37.633-13.244 13.49-22.924 30.406-28.848 48.369-5.438 16.104-8.422 34.957-7.617 57.031v94.355s2.625 18.498 17.424 22.725l134.414 0.092s24.154-0.092 25.6-29.236c1.035-20.82 0.77-36.693-0.391-57.492-1.24-22.266 13.906-20.656 31.426-26.789 32.123-11.242 64.002-29.791 88.662-53.27 33.883-32.262 60.947-73.037 73.652-118.278 7.031-25.035 12.014-53.484 12.014-79.559-0.002-149.422-121.227-270.554-270.766-270.554z" fill="#FFFFFF" p-id="1870"></path><path d="M793.256 882.149h-576c-6.627 0-12-5.373-12-12s5.373-12 12-12h576c6.627 0 12 5.373 12 12s-5.373 12-12 12zM566.877 798.349l-134.414-0.092a12.026 12.026 0 0 1-3.288-0.461c-17.595-5.025-24.627-22.843-26.009-32.578a12.034 12.034 0 0 1-0.119-1.686V669.39c-0.779-22.018 1.996-42.567 8.248-61.084 6.713-20.358 17.668-38.691 31.653-52.938 18.252-18.586 40.007-32.242 64.662-40.592 9.718-3.291 19.468-5.434 28.897-7.505 20.295-4.46 37.822-8.312 51.911-21.938 16.755-16.201 26.757-39.979 26.757-63.605 0-48.676-39.519-88.276-88.094-88.276s-88.094 39.602-88.094 88.278c0 10.254 2.673 19.963 5.502 30.243 4.59 16.678 9.793 35.581 2 57.109-8.634 23.847-28.436 52.527-58.117 61.508-12.1 3.659-24.079 5.514-35.606 5.514-21.742 0-42.275-6.517-61.032-19.368-29.294-20.075-35.594-49.548-41.151-75.552a285.002 285.002 0 0 1-6.265-59.456c0-75.476 29.414-146.434 82.822-199.802 53.407-53.366 124.414-82.756 199.941-82.756s146.534 29.39 199.941 82.755c53.409 53.368 82.823 124.324 82.824 199.799 0 24.786-4.426 54.193-12.461 82.803-12.657 45.072-39.26 87.855-76.93 123.724-25.027 23.827-58.046 43.682-92.974 55.905-3.938 1.379-7.692 2.387-11.004 3.277-12.613 3.388-12.845 3.604-12.404 11.519 1.278 22.91 1.385 38.835 0.395 58.755-1.012 20.393-11.018 30.446-19.233 35.289-8.584 5.06-16.755 5.346-18.306 5.352l-0.052 0.001z m-132.328-24.091l132.16 0.091c3.956-0.188 13.021-2.331 13.79-17.831 0.944-19 0.84-34.239-0.387-56.229-1.533-27.524 17.527-32.645 30.141-36.032 3.051-0.819 6.205-1.667 9.302-2.751 31.783-11.123 61.74-29.105 84.353-50.635 34.547-32.894 58.882-71.91 70.374-112.831 7.459-26.558 11.566-53.66 11.566-76.314-0.001-69.061-26.916-133.988-75.788-182.822-48.875-48.837-113.857-75.732-182.978-75.732s-134.103 26.896-182.977 75.733c-48.872 48.835-75.787 113.764-75.787 182.825 0 18.319 1.93 36.635 5.735 54.439 5.952 27.853 11.344 47.13 31.247 60.771 14.687 10.063 30.656 15.166 47.466 15.166 9.172 0 18.813-1.509 28.658-4.486 21.21-6.417 36.15-29.17 42.499-46.705 5.194-14.35 1.595-27.427-2.573-42.57-3.128-11.364-6.362-23.115-6.362-36.612 0-61.911 50.285-112.278 112.094-112.278s112.094 50.367 112.094 112.276c0 30-12.737 60.227-34.072 80.857-18.978 18.354-41.583 23.322-63.444 28.127-9.198 2.021-17.887 3.93-26.351 6.797-21.061 7.131-39.644 18.798-55.235 34.675-11.422 11.635-20.418 26.753-26.013 43.72-5.368 15.897-7.721 33.646-7.021 52.835 0.005 0.146 0.008 0.292 0.008 0.438v93.222c0.497 2.216 2.481 9.475 7.501 11.856z" fill="" p-id="1871"></path><path d="M581.875 848.534c0 4.107 1.953 7.438-2.156 7.438H431.482c-4.107 0-3.211-3.33-3.211-7.438l0.541-2.672a7.44 7.44 0 0 1 7.441-7.436h137.664a7.44 7.44 0 0 1 7.441 7.436l0.517 2.672z" fill="#FCFFB6" p-id="1872"></path><path d="M573.918 838.427a7.44 7.44 0 0 1 7.441 7.436l0.516 2.672c0 4.107 1.953 7.438-2.156 7.438H431.482c-4.107 0-3.211-3.33-3.211-7.438l0.541-2.672a7.44 7.44 0 0 1 7.441-7.436h137.665m0-24H436.254c-16.254 0-29.667 12.395-31.279 28.229l-0.226 1.116a24.026 24.026 0 0 0-0.478 4.763c0 0.224-0.015 0.635-0.029 1.032-0.137 3.825-0.5 13.985 7.494 22.271 5.061 5.245 12.073 8.134 19.746 8.134h148.236c8.035 0 15.22-3.154 20.229-8.881 7.824-8.945 6.437-19.271 5.98-22.664-0.019-0.142-0.04-0.288-0.059-0.438a24.012 24.012 0 0 0-0.429-4.002l-0.229-1.185c-1.542-15.904-14.988-28.375-31.292-28.375z" fill="" p-id="1873"></path><path d="M730.799 302.136c-20.938 14.876-49.969 9.964-64.846-10.974-14.875-20.937-9.963-49.97 10.975-64.845" fill="#FFFFFF" p-id="1874"></path><path d="M694.408 271.945m-15 0a15 15 0 1 0 30 0 15 15 0 1 0-30 0Z" fill="" p-id="1875"></path><path d="M750.476 438.151c-0.678 0-1.363-0.058-2.054-0.176-6.531-1.126-10.912-7.333-9.786-13.865 9.098-52.766-20.21-103.353-20.508-103.858-3.357-5.706-1.465-13.061 4.235-16.427 5.701-3.367 13.046-1.488 16.421 4.207 1.398 2.36 34.131 58.509 23.502 120.156-1.007 5.841-6.078 9.963-11.81 9.963zM351.222 781.852c-2.325 0-4.675-0.674-6.742-2.081l-40.717-27.717c-5.479-3.729-6.896-11.194-3.167-16.673s11.195-6.896 16.673-3.167l40.717 27.717c5.479 3.729 6.896 11.194 3.167 16.673a11.99 11.99 0 0 1-9.931 5.248zM334.941 830.252a12.02 12.02 0 0 1-2.846-0.343l-51.199-12.453c-6.439-1.566-10.391-8.057-8.824-14.496s8.056-10.39 14.496-8.824l51.199 12.453c6.439 1.566 10.391 8.057 8.824 14.496-1.334 5.486-6.243 9.167-11.65 9.167zM662.737 781.852a11.99 11.99 0 0 1-9.931-5.248c-3.729-5.479-2.312-12.943 3.167-16.673l40.717-27.717c5.48-3.729 12.944-2.311 16.673 3.167 3.729 5.479 2.312 12.943-3.167 16.673l-40.717 27.717a11.945 11.945 0 0 1-6.742 2.081zM679.018 830.252c-5.407 0-10.315-3.68-11.65-9.167-1.566-6.439 2.385-12.93 8.824-14.496l51.199-12.453c6.433-1.564 12.93 2.384 14.496 8.824 1.566 6.439-2.385 12.93-8.824 14.496l-51.199 12.453a12.02 12.02 0 0 1-2.846 0.343z" fill="" p-id="1876"></path></svg>