<?xml version="1.0" standalone="no"?><!DOCTYPE svg PUBLIC "-//W3C//DTD SVG 1.1//EN" "http://www.w3.org/Graphics/SVG/1.1/DTD/svg11.dtd"><svg t="1588759811387" class="icon" viewBox="0 0 1024 1024" version="1.1" xmlns="http://www.w3.org/2000/svg" p-id="2132" width="16" height="16" xmlns:xlink="http://www.w3.org/1999/xlink"><defs><style type="text/css"></style></defs><path d="M905.6 512c0-55.89333333 35.09333334-103.25333333 84.26666667-122.13333334-11.73333333-46.08000001-29.86666667-89.49333334-53.54666667-129.38666666C888.10666667 281.91999999 829.86666667 273.17333332 790.4 233.6c-39.46666667-39.46666667-48.21333333-97.81333334-26.77333334-145.92C723.62666667 64 680.21333334 45.86666667 634.13333334 34.13333333c-18.98666667 49.17333334-66.34666667 84.26666667-122.13333334 84.26666667-55.89333333 0-103.25333333-35.09333334-122.13333334-84.26666667-46.08000001 11.73333333-89.49333334 29.86666667-129.38666666 53.54666667 21.44000001 48.21333333 12.69333334 106.45333333-26.77333334 145.92-39.46666667 39.46666667-97.81333334 48.21333333-145.91999998 26.88C64 300.37333333 45.86666667 343.78666666 34.13333333 389.86666666c49.17333334 18.98666667 84.26666667 66.34666667 84.26666667 122.13333334 0 55.89333333-35.09333334 103.25333333-84.26666667 122.13333334 11.73333333 46.08000001 29.86666667 89.49333334 53.54666667 129.38666666C135.89333333 742.08000001 194.13333333 750.82666668 233.6 790.4c39.46666667 39.46666667 48.21333333 97.81333334 26.77333334 145.92C300.37333333 960 343.78666666 978.13333333 389.86666666 989.86666667c18.98666667-49.17333334 66.34666667-84.26666667 122.13333334-84.26666667 55.89333333 0 103.25333333 35.09333334 122.13333334 84.26666667 46.08000001-11.73333333 89.49333334-29.86666667 129.38666666-53.54666667-21.44000001-48.21333333-12.69333334-106.45333333 26.77333334-145.92 39.46666667-39.46666667 97.81333334-48.21333333 145.91999998-26.88C960 723.62666667 978.13333333 680.21333334 989.86666667 634.13333334c-49.17333334-18.88000001-84.26666667-66.24000001-84.26666667-122.13333334zM512 643.2c-72.42666668 0-131.2-58.77333334-131.2-131.2s58.77333334-131.2 131.2-131.2 131.2 58.77333334 131.2 131.2-58.77333334 131.2-131.2 131.2z" fill="#e6e6e6" p-id="2133"></path></svg>