<?xml version="1.0" standalone="no"?><!DOCTYPE svg PUBLIC "-//W3C//DTD SVG 1.1//EN" "http://www.w3.org/Graphics/SVG/1.1/DTD/svg11.dtd"><svg t="1587696999561" class="icon" viewBox="0 0 1024 1024" version="1.1" xmlns="http://www.w3.org/2000/svg" p-id="3132" xmlns:xlink="http://www.w3.org/1999/xlink" width="32" height="32"><defs><style type="text/css"></style></defs><path d="M381.452181 709.331833c-198.468223-11.001115-356.037054-175.879125-356.037054-377.623141a377.025603 377.025603 0 0 1 56.44607-199.044422c57.555785 4.812321 136.100118 18.075547 195.384496 53.597091C298.031505 99.682266 342.164009 38.733315 403.689158 0c65.345129 38.733315 102.733981 101.549574 126.976982 186.261361 47.440308-36.962039 131.245116-49.830463 192.460825-54.130608a377.206998 377.206998 0 0 1 56.712828 199.535257c0 201.082455-156.469786 365.490971-353.956339 377.516438v222.58318a22.188961 22.188961 0 0 1-44.377921 0z m-108.944116 187.275042C223.541899 789.29532 132.35322 732.646514 26.375457 732.091657a22.188961 22.188961 0 0 1 0.224077-44.377922c123.007617 0.618879 230.041744 67.137745 286.327758 190.476143a22.194296 22.194296 0 1 1-40.376546 18.416997z m221.878937-18.406327c56.286015-123.359738 163.320141-189.857263 286.327759-190.465472a22.188961 22.188961 0 0 1 0.213407 44.377921c-106.009774 0.533517-197.198454 57.192993-246.17529 164.515219a22.188961 22.188961 0 1 1-40.376546-18.416998z m0 0" p-id="3133"></path></svg>