<?xml version="1.0" standalone="no"?><!DOCTYPE svg PUBLIC "-//W3C//DTD SVG 1.1//EN" "http://www.w3.org/Graphics/SVG/1.1/DTD/svg11.dtd"><svg t="1588081455563" class="icon" viewBox="0 0 1024 1024" version="1.1" xmlns="http://www.w3.org/2000/svg" p-id="17460" xmlns:xlink="http://www.w3.org/1999/xlink" width="32" height="32"><defs><style type="text/css"></style></defs><path d="M853.91 636.25c-0.74-44.1-8.11-88.15-20.66-131q-2.21-7.56-4.64-15.07-2.49-7.71-5.19-15.37Q814.65 450 803.74 426q-3.23-7.14-6.63-14.2-7.54-15.66-15.89-30.88-8.59-15.7-17.95-30.87-3.87-6.28-7.86-12.47-4.15-6.43-8.42-12.74-15.08-22.31-31.56-43.11-1.62-2.05-3.25-4.09a663.038 663.038 0 0 0-19.33-23q-4.33-4.92-8.83-9.84c-9.25-10.11-19-20.16-29.28-29.94q-5.67-5.41-11.53-10.7-6.65-6-13.53-11.79a448 448 0 0 0-45.14-33.59q-7.61-4.92-15.4-9.45-6.29-3.65-12.69-7c-21.61-11.34-44.14-20.11-67.29-25.23q-10.63-2.35-21.44-3.64a198.62 198.62 0 0 0-41.39-0.65c-62.72 5.67-120.78 54-173.28 84.49 1.84-1 3.69-1.92 5.54-2.82A137.48 137.48 0 0 0 219 225.2c-41 46-52.49 109-49.45 171.59 0.65 13.28 2 26.53 3.76 39.6A560.33 560.33 0 0 0 189.14 511c31.07 110.09 93 214.45 175.67 293.61a516.24 516.24 0 0 0 49.88 42c10.4 7.68 21.28 15.09 32.54 22C515.38 910.45 597 933.8 665 887.95q-3.75 2.58-7.72 4.93c49.25-28.62 114.43-53.56 151.53-98.59 35.91-43.53 46.02-103.14 45.1-158.04z" fill="#F5F9FF" p-id="17461"></path><path d="M426.35 112.79c-62.72 5.67-120.78 54-173.28 84.49C289 178 332.9 176.16 370.49 183.38l100.64-69.48c-13.64-1.62-30.84-2.37-44.78-1.11z" fill="#C0D3F2" p-id="17462"></path><path d="M467.74 113.44l-102.93 68.81c6.62 1.27 17.61 4.42 24.18 6.3L494.7 118.4c-7.1-1.57-19.76-4.11-26.96-4.96z" fill="#BFD2F2" p-id="17463"></path><path d="M489.17 117.08L384.61 187c22 6.29 49.24 18.92 69.88 30.39l106-72.91c-21.66-11.35-48.16-22.28-71.32-27.4z" fill="#BED2F2" p-id="17464"></path><path d="M556.46 142.31l-107.57 71.92c4.17 2.32 13.35 8.17 17.43 10.65l106.4-73.44c-4.19-2.44-11.99-6.89-16.26-9.13z" fill="#BDD1F2" p-id="17465"></path><path d="M569.15 149.31l-107.87 72.12c5.13 3.1 14.57 9.31 19.54 12.62L589 161.7c-5.08-3.28-14.66-9.37-19.85-12.39z" fill="#BCD1F1" p-id="17466"></path><path d="M584.55 158.76L476.44 231c15.88 10.55 35 25.59 48.88 37.34l108.93-72.09c-14.36-12.05-34.01-27.34-49.7-37.49z" fill="#BBD0F1" p-id="17467"></path><path d="M629.68 192.35l-108.39 72.46c4.63 3.91 12.49 11.62 16.86 15.57l109.06-72.55c-4.42-4-12.94-11.62-17.53-15.48z" fill="#BACFF1" p-id="17468"></path><path d="M643.22 204.15l-108.41 72.47c4 3.57 10.8 9.86 14.51 13.43l109.21-71.54c-3.78-3.61-11.41-10.84-15.31-14.36z" fill="#B9CFF1" p-id="17469"></path><path d="M654.74 214.85l-108.42 72.49q5.73 5.5 11.07 10.93c6.06 6.17 15.18 16 21.1 22.61l108-73.35c-9.24-10.11-21.49-22.9-31.75-32.68z" fill="#B8CEF1" p-id="17470"></path><path d="M684 244.79l-108.64 72.64c2.93 3.26 9.41 10.6 12.29 13.95l107.86-73.69c-2.88-3.29-8.51-9.63-11.51-12.9z" fill="#B7CEF1" p-id="17471"></path><path d="M712.18 277.64a663.038 663.038 0 0 0-19.33-23l-108.76 72.7c7.57 8.8 19.65 24.31 26.9 33.71l107.18-75.85c-1.09-1.36-4.9-6.2-5.99-7.56z" fill="#B6CDF1" p-id="17472"></path><path d="M715.43 281.72l-109.1 72.94c10.73 13.93 23.48 31.82 33.32 46.89l108.85-74.46c-10.05-14.87-22.11-31.52-33.07-45.37z" fill="#B4CCF0" p-id="17473"></path><path d="M747 324.83l-109.74 73.36c2.78 4.25 7.53 11.69 10.23 16l109.4-74.33c-2.77-4.26-7.05-10.86-9.89-15.03z" fill="#B3CCF0" p-id="17474"></path><path d="M755.41 337.57l-109.94 73.5c2.6 4.17 7 11.74 9.51 16l110.29-73.71c-2.57-4.22-7.2-11.66-9.86-15.79z" fill="#B2CBF0" p-id="17475"></path><path d="M763.27 350l-110.13 73.68c6.07 10.21 13.78 24.13 19.35 34.7L783 384.26c-5.69-10.46-13.5-24.1-19.73-34.26z" fill="#B1CBF0" p-id="17476"></path><path d="M781.22 380.92l-110.6 73.94c5.4 10.25 11.66 23.16 16.54 33.68l110.77-75.05c-5.04-10.44-11.16-22.42-16.71-32.57z" fill="#B0CAF0" p-id="17477"></path><path d="M797.11 411.8L686.06 486q3.3 7.13 6.43 14.34L803.74 426q-3.23-7.13-6.63-14.2z" fill="#AFC9F0" p-id="17478"></path><path d="M802.9 424.17l-111.08 74.71c7 16.19 14.42 35 20 51.57l111.89-74.8c-5.81-16.52-13.57-35.48-20.81-51.48z" fill="#AEC9EF" p-id="17479"></path><path d="M823.41 474.82l-111.89 74.8c1.74 5.15 4.2 12.42 5.79 17.6l111.91-75.08c-1.65-5.14-4-12.22-5.81-17.32z" fill="#ADC8EF" p-id="17480"></path><path d="M828.61 490.18l-112.07 74.93c1.56 5.05 3.54 12 4.95 17.11l112.4-74.76c-1.48-5.04-3.67-12.27-5.28-17.28z" fill="#ACC8EF" p-id="17481"></path><path d="M808.86 794.29c35.86-43.52 46-103.14 45.05-158-0.74-44.1-8.11-88.15-20.66-131l-112.25 75c17.77 63.87 23.76 129.14 12.89 190.23-8.33 46.83-32.24 96.22-76.56 122.36 49.24-28.62 114.42-53.56 151.53-98.59z" fill="#ABC7EF" p-id="17482"></path><path d="M665.38 887.72c72.06-48.84 81.52-149.4 72.31-228.24-13.5-115.6-67.26-227.4-139.88-317.4C535.22 264.5 443 183.92 338.36 178.18c-45.1-2.47-88.84 12.8-119.36 47-67.09 75.24-55.16 196.14-29.86 285.8 31.07 110.09 93 214.45 175.67 293.61C438 874.73 566.2 954.95 665.38 887.72z" fill="#F5F9FF" p-id="17483"></path><path d="M430.93 275.47c9 5.18 16.33 1 16.36-9.32l0.15-52.47a24.17 24.17 0 0 0-0.21-3 310.17 310.17 0 0 0-32.4-15.12l-0.15 51.78c-0.03 10.28 7.32 22.95 16.25 28.13z m16.36 591.78l0.15-52.47c0-10.3-7.29-23-16.25-28.15s-16.33-1-16.36 9.32l-0.14 50.69c10.4 7.68 21.28 15.09 32.54 22 0.03-0.46 0.06-0.91 0.06-1.39z m292.64-139.77l-45.66-26.36c-9-5.18-16.33-1-16.36 9.33s7.29 23 16.25 28.15l42.31 24.4a322.87 322.87 0 0 0 3.69-35.4zM173.32 436.39l43.56 25.15c9 5.18 16.34 1 16.37-9.32s-7.28-23-16.26-28.16l-45.66-26.36c-0.6-0.35-1.19-0.64-1.77-0.9 0.64 13.27 1.94 26.52 3.76 39.59z" fill="#DEE8FF" p-id="17484"></path><path d="M447.77 516.64c-0.48 0.28-1.74 2.15-2.21 2.43-1.44 1.3-2.85 1.65-4.75 2.63-0.38 0.22-0.82 1.63-1.2 1.85L451.95 545l-0.21-19c-0.9-1.53-3.13-7.91-3.97-9.36z" fill="#C0D3F2" p-id="17485"></path><path d="M450.23 523.41v18.54l13.35 23.14-0.45-19.41z" fill="#BDD1F2" p-id="17486"></path><path d="M461.52 542.91v18.6l12.05 20.89 0.61-17.62z" fill="#BAD0F1" p-id="17487"></path><path d="M471.48 560.11v18.66l11 19.1-0.21-19.08z" fill="#B7CEF1" p-id="17488"></path><path d="M479.44 573.86v18.7l37.45 64.87-0.46-19.58c-11.6-20.09-26.28-45.49-36.99-63.99z" fill="#B4CCF0" p-id="17489"></path><path d="M513.4 632.61v18.78L530.51 681l0.66-17.6c-5.17-8.89-12.51-21.68-17.77-30.79z" fill="#B1CAF0" p-id="17490"></path><path d="M529 659.71v18.76l10.51 18.2 0.58-17.68z" fill="#AEC9EF" p-id="17491"></path><path d="M587.71 763.19c-4.12-8.27-24.78-44.54-49.72-87.91V694l34.3 59.42c4.12 7.13 8 14.5 9.51 22.6s-0.28 17.21-6.39 22.73c3.34-1.69 6.57-3.36 8.7-5.42a22.64 22.64 0 0 0 5.42-9 24.37 24.37 0 0 0 1.21-6.23 29.57 29.57 0 0 0-3.03-14.91z" fill="#ABC7EF" p-id="17492"></path><path d="M398.32 298.42a20.38 20.38 0 0 1 4.07-1.46l-0.13-0.91c-1.08 0.66-2.83 1.73-3.94 2.37z" fill="#C0D3F2" p-id="17493"></path><path d="M401.61 296.44v0.7a18.77 18.77 0 0 1 5.51-0.21l-0.13-3.4a59.69 59.69 0 0 0-5.38 2.91z" fill="#BDD1F2" p-id="17494"></path><path d="M415.22 292.23a15.55 15.55 0 0 0-8.83 1.57l-0.15 3.12a25.68 25.68 0 0 1 9.79 3.37v-7.93z" fill="#BAD0F1" p-id="17495"></path><path d="M415.51 292.28V300c1.06 0.62 3 1.91 4 2.66l-0.12-9.46a23.09 23.09 0 0 0-3.88-0.92z" fill="#B7CEF1" p-id="17496"></path><path d="M418.63 292.94V302c1.43 1 3.57 2.83 4.88 4l0.08-11.15a25.78 25.78 0 0 0-4.96-1.91z" fill="#B4CCF0" p-id="17497"></path><path d="M422.74 294.5v10.94a78.42 78.42 0 0 1 6.2 6.82l0.18-13.76a39.31 39.31 0 0 0-6.38-4z" fill="#B1CAF0" p-id="17498"></path><path d="M428 297.66v13.44a47.5 47.5 0 0 1 4.57 6.62 95.84 95.84 0 0 1 4.7 9.89l0.14-20.31a46 46 0 0 0-9.41-9.64z" fill="#AEC9EF" p-id="17499"></path><path d="M447.67 517.55c0.89-2.65 0.75-172.52 0.5-181-0.29-9.45-4.52-21.06-11.36-30.05v19.93c3.42 8.52 3.27 14.38 3.25 23.19-0.12 43.54-0.45 159.5-0.49 173.93 0.38-0.22 0.77-0.43 1.17-0.63a25.58 25.58 0 0 0 5.43-3.15 5.17 5.17 0 0 0 1.5-2.22z" fill="#ABC7EF" p-id="17500"></path><path d="M415.7 300.09c13.45 7.77 24.42 26.77 24.38 42.22l-0.51 181.2L575.53 759c9.49 16.43 9.44 34.32-0.11 39.75-4.77 2.72-11 1.84-17.32-1.78s-12.53-10-17.28-18.19L397.7 530.86c-5.34-9.25-7.66-19-7-26.66-0.07-0.93-0.11-1.84-0.1-2.75l0.53-187.38c0.08-15.45 11.12-21.75 24.57-13.98z" fill="#DEE8FF" p-id="17501"></path><path d="M481.22 572.58a109.44 109.44 0 0 0-5.86-31.5q-0.9-2.69-1.93-5.34A142.29 142.29 0 0 0 462.77 514q-1.47-2.46-3-4.85-1.69-2.6-3.47-5.1t-3.76-5.05c-2.07-2.68-4.31-5.39-6.7-8.06a117.74 117.74 0 0 0-17.1-15.94q-2.69-2-5.5-3.8t-5.49-3.2a56.62 56.62 0 0 0-19.47-6.3 46.39 46.39 0 0 0-5.12-0.34 34.44 34.44 0 0 0-13.92 3.05c-6.49 2.76-12.53 6.93-18.63 10.47h0.08c-11 6.36-17.87 19.94-17.92 39.26-0.11 38.81 27.18 86.07 60.95 105.57 17.24 10 32.83 10.73 44 4-0.16 0.1-0.31 0.21-0.47 0.3 9.31-5.41 20.26-10 26.43-19.23s7.87-21.2 7.54-32.2z" fill="#FFC2B6" p-id="17502"></path><path d="M360.6 474.93a38.54 38.54 0 0 1 13.55-3.9l6-6.95c-6.5 2.55-13.45 7.3-19.55 10.85z" fill="#FFA78F" p-id="17503"></path><path d="M393.16 461.4a34.44 34.44 0 0 0-13.92 3.05l-6.24 6.61c5-0.54 11.35 0.44 16.4 1.82l9.62-11c-1.64-0.24-4.14-0.46-5.86-0.48z" fill="#FFA58C" p-id="17504"></path><path d="M398.28 461.74l-10 10.73a75 75 0 0 1 18.54 8.53l11.35-12.7a57 57 0 0 0-19.89-6.56z" fill="#FFA28A" p-id="17505"></path><path d="M417.75 468l-11.67 12.47c1.78 1.1 4.19 2.72 5.89 3.93l11.79-12.89c-1.76-1.09-4.15-2.51-6.01-3.51z" fill="#FFA087" p-id="17506"></path><path d="M423.24 471.22l-12 12.77c1.82 1.3 4.18 3.17 5.89 4.56l12.05-13.16c-1.74-1.39-4.07-2.98-5.94-4.17z" fill="#FF9D84" p-id="17507"></path><path d="M428.74 475l-12.16 13a119 119 0 0 1 14.13 13.53c0.82 0.93 2.16 2.52 3 3.48l12.4-13.87A121.61 121.61 0 0 0 428.74 475z" fill="#FF9B81" p-id="17508"></path><path d="M452.83 499.34c-2.07-2.68-4.63-5.8-7-8.47l-12.69 13.53c2.23 2.68 4.67 5.88 6.75 8.78 0 0 12.95-13.82 12.94-13.84z" fill="#FF987F" p-id="17509"></path><path d="M452.54 499l-12.92 13.8c1.22 1.71 2.71 3.92 3.87 5.69l13.16-13.92c-1.23-1.75-2.84-3.95-4.11-5.57z" fill="#FF967C" p-id="17510"></path><path d="M456.27 504l-13.09 14c1.13 1.74 2.55 4 3.61 5.83l13.3-14.16c-1.09-1.73-2.63-3.98-3.82-5.67z" fill="#FF9379" p-id="17511"></path><path d="M459.75 509.12l-13.27 14.18c1 1.65 2.14 3.7 3.06 5.4L463 514.34c-1-1.64-2.22-3.62-3.25-5.22z" fill="#FF9176" p-id="17512"></path><path d="M462.77 514l-13.43 14.35a145.14 145.14 0 0 1 10 23l14.3-15A148.51 148.51 0 0 0 462.77 514z" fill="#FF8E74" p-id="17513"></path><path d="M473.44 535.74l-14.23 15.2c0.62 1.85 1.34 4.23 1.86 6.09l14.46-15.45c-0.6-1.79-1.41-4.07-2.09-5.84z" fill="#FF8C71" p-id="17514"></path><path d="M473.66 604.75c6.24-9.33 7.9-21.17 7.57-32.17a109.44 109.44 0 0 0-5.86-31.5l-14.44 15.42a103.72 103.72 0 0 1 4.14 28.26c0 14.61-4.33 31.37-17.84 39.22 9.3-5.41 20.26-9.98 26.43-19.23z" fill="#FF896E" p-id="17515"></path><path d="M404.11 479.19c33.77 19.5 61.06 66.76 60.95 105.57s-27.58 54.46-61.35 35-61.06-66.76-60.95-105.61 27.58-54.46 61.35-34.96z" fill="#FFC2B6" p-id="17516"></path></svg>