<?xml version="1.0" standalone="no"?><!DOCTYPE svg PUBLIC "-//W3C//DTD SVG 1.1//EN" "http://www.w3.org/Graphics/SVG/1.1/DTD/svg11.dtd"><svg t="1588081220391" class="icon" viewBox="0 0 1024 1024" version="1.1" xmlns="http://www.w3.org/2000/svg" p-id="10613" data-spm-anchor-id="a313x.7781069.0.i2" xmlns:xlink="http://www.w3.org/1999/xlink" width="32" height="32"><defs><style type="text/css"></style></defs><path d="M641.9 472c-10.7 23.6-34.4 40-62 40-37.5 0-67.9-30.4-67.9-67.9 0-27.6 16.4-51.3 40-62-12.7-3.9-26.1-6-40-6-75 0-135.9 60.8-135.9 135.9S437 647.9 512 647.9 647.9 587 647.9 512c0-13.9-2.1-27.4-6-40zM512 240.2C249.3 240.2 36.4 512 36.4 512S249.3 783.8 512 783.8 987.6 512 987.6 512 774.7 240.2 512 240.2z m0 475.6c-112.6 0-203.8-91.2-203.8-203.8S399.4 308.2 512 308.2 715.8 399.4 715.8 512 624.6 715.8 512 715.8zM579.9 512c-37.5 0-67.9-30.4-67.9-67.9 0-27.6 16.4-51.3 40-62-12.7-3.9-26.1-6-40-6-75 0-135.9 60.8-135.9 135.9S437 647.9 512 647.9 647.9 587 647.9 512c0-13.9-2.1-27.4-6-40-10.7 23.6-34.4 40-62 40z" fill="#6799FF" p-id="10614" data-spm-anchor-id="a313x.7781069.0.i1" class=""></path><path d="M647.9 512c0 75-60.8 135.9-135.9 135.9S376.1 587 376.1 512 437 376.1 512 376.1c13.9 0 27.4 2.1 40 6-23.6 10.7-40 34.4-40 62 0 37.5 30.4 67.9 67.9 67.9 27.6 0 51.3-16.4 62-40 3.9 12.6 6 26.1 6 40z" fill="#91b4ff" p-id="10615" data-spm-anchor-id="a313x.7781069.0.i0" class=""></path></svg>