<?xml version="1.0" standalone="no"?><!DOCTYPE svg PUBLIC "-//W3C//DTD SVG 1.1//EN" "http://www.w3.org/Graphics/SVG/1.1/DTD/svg11.dtd"><svg t="1588581526960" class="icon" viewBox="0 0 1024 1024" version="1.1" xmlns="http://www.w3.org/2000/svg" p-id="13052" xmlns:xlink="http://www.w3.org/1999/xlink" width="32" height="32"><defs><style type="text/css"></style></defs><path d="M512 512m-512 0a512 512 0 1 0 1024 0 512 512 0 1 0-1024 0Z" fill="#FB714A" p-id="13053"></path><path d="M652.736 489.728s99.648 2.496 99.648 86.208c0 60.864-72.192 185.664-302.976 185.664C266.048 761.6 185.6 665.6 185.6 591.68c0-121.536 219.072-326.4 308.736-262.08a58.944 58.944 0 0 1-1.536 89.472c244.608-77.952 159.936 70.656 159.936 70.656z m-1.536-117.696a22.848 22.848 0 0 1-25.728-19.2 22.464 22.464 0 0 1 19.2-25.344A90.816 90.816 0 0 1 733.952 358.4a85.44 85.44 0 0 1 12.672 84.48 22.848 22.848 0 0 1-21.12 14.016 27.072 27.072 0 0 1-8.448-1.536 22.464 22.464 0 0 1-13.056-29.184 42.048 42.048 0 0 0-6.528-39.936 47.424 47.424 0 0 0-46.272-14.208z m-193.344 199.68a17.28 17.28 0 1 0 17.472 17.28 17.472 17.472 0 0 0-17.472-17.28zM435.2 620.864a35.52 35.52 0 1 0-25.344 40.32 33.984 33.984 0 0 0 25.344-40.32z m15.168 78.144c-57.6 9.792-112.128-22.272-120.576-71.616s31.872-97.152 90.048-106.944 111.36 22.272 120 71.616-32.064 97.344-90.24 106.944z m-17.088-230.4c-107.52 9.792-189.12 76.8-182.208 148.608s99.264 122.496 206.784 112.512 189.12-76.8 182.208-148.416-100.032-122.88-207.552-112.896z m389.376 0a22.464 22.464 0 0 1-29.568 12.48 22.272 22.272 0 0 1-12.288-30.336 121.728 121.728 0 0 0-19.2-117.504c-19.2-25.344-59.136-53.184-132.096-43.008a22.464 22.464 0 1 1-6.336-44.544c73.728-10.368 135.552 10.944 174.144 59.712a167.04 167.04 0 0 1 24.576 162.24z" fill="#FFFFFF" p-id="13054"></path></svg>